<svg xmlns="http://www.w3.org/2000/svg" xmlns:xlink="http://www.w3.org/1999/xlink" aria-hidden="true" role="img" class="iconify iconify--logos" width="35.93" height="32" preserveAspectRatio="xMidYMid meet" viewBox="0 0 256 228"><path fill="#00D8FF" d="M210.483 73.824a171.49 171.49 0 0 0-8.24-2.597c.465-1.9.893-3.777 1.273-5.621c6.238-30.281 2.16-54.676-10.332-62.708c-12.065-7.7-29.006.329-43.54 19.526a171.23 171.23 0 0 0-6.375 8.05c-18.452-5.098-37.194-8.446-55.904-9.938c-1.621-.133-3.222-.26-4.811-.38c.116-1.098.234-2.194.354-3.287C99.735 3.471 108.873.393 117.31.393c12.575 0 20.323 6.72 22.568 18.442c.198 1.006.29 2.077.354 3.22c.377 6.478.553 13.21.553 20.069c0 6.747-.158 13.378-.5 19.764c-.063 1.089-.152 2.183-.267 3.28c1.609-.12 3.231-.247 4.863-.38c18.887-1.52 37.796-4.914 56.397-10.163a145.788 145.788 0 0 1 6.491-8.207c14.739-19.422 31.946-27.462 44.004-19.764c12.637 8.08 16.777 32.754 10.504 63.025c-.38 1.844-.808 3.721-1.273 5.621a171.49 171.49 0 0 0-8.24 2.597c-19.026 6.15-37.927 15.798-56.263 28.525c18.336 12.727 37.237 22.375 56.263 28.525a171.49 171.49 0 0 0 8.24 2.597c.465 1.9.893 3.777 1.273 5.621c6.273 30.271 2.133 54.945-10.504 63.025c-12.058 7.698-29.265-.342-44.004-19.764a145.788 145.788 0 0 1-6.491-8.207c-18.601-5.249-37.51-8.643-56.397-10.163c-1.632-.133-3.254-.26-4.863-.38c.115-1.097.204-2.191.267-3.28c.342-6.386.5-13.017.5-19.764c0-6.859-.176-13.591-.553-20.069c-.064-1.143-.156-2.214-.354-3.22c-2.245-11.722-9.993-18.442-22.568-18.442c-8.437 0-17.575 3.078-25.297 9.42c-.12 1.093-.238 2.189-.354 3.287c-1.589.12-3.19.247-4.811.38c-18.71 1.492-37.452 4.84-55.904 9.938a171.23 171.23 0 0 0-6.375-8.05c-14.534-19.197-31.475-27.226-43.54-19.526c-12.492 8.032-16.57 32.427-10.332 62.708c.38 1.844.808 3.721 1.273 5.621a171.49 171.49 0 0 0 8.24 2.597c19.026 6.15 37.927 15.798 56.263 28.525C172.556 89.622 191.457 79.974 210.483 73.824zM128.036 163.754c-19.893 0-36.236-16.343-36.236-36.236s16.343-36.236 36.236-36.236s36.236 16.343 36.236 36.236S147.929 163.754 128.036 163.754z"></path></svg>